<?xml version="1.0" standalone="no"?>
<!DOCTYPE svg PUBLIC "-//W3C//DTD SVG 20010904//EN"
 "http://www.w3.org/TR/2001/REC-SVG-20010904/DTD/svg10.dtd">
<svg version="1.0" xmlns="http://www.w3.org/2000/svg"
 width="166.000000pt" height="166.000000pt" viewBox="0 0 166.000000 166.000000"
 preserveAspectRatio="xMidYMid meet">
<metadata>
Created by potrace 1.14, written by Peter Selinger 2001-2017
</metadata>
<g transform="translate(0.000000,166.000000) scale(0.100000,-0.100000)"
fill="#000000" stroke="none">
<path d="M736 1613 c-2 -2 -14 -5 -27 -7 -54 -7 -100 -19 -105 -27 -3 -5 -9
-7 -14 -4 -15 9 -155 -60 -226 -110 -257 -184 -382 -513 -310 -818 19 -80 74
-217 87 -217 5 0 9 -5 9 -11 0 -27 100 -145 180 -213 69 -58 205 -127 290
-146 30 -7 67 -16 82 -20 43 -13 248 -4 313 13 118 32 291 120 278 141 -3 5
-1 6 5 2 18 -11 155 133 201 212 45 75 89 181 96 227 2 17 4 30 5 30 13 0 20
219 9 275 -15 81 -18 93 -35 144 -35 105 -117 231 -204 314 -83 79 -249 174
-330 188 -14 3 -32 7 -40 9 -49 14 -254 28 -264 18z m294 -102 c73 -22 220
-97 220 -113 0 -4 6 -8 13 -8 6 0 25 -14 41 -30 16 -17 33 -30 38 -30 4 0 8
-5 8 -11 0 -15 26 -39 35 -31 4 4 5 3 4 -3 -2 -5 16 -38 38 -73 44 -66 94
-186 100 -236 2 -16 6 -41 9 -55 11 -49 5 -177 -10 -247 -29 -128 -105 -276
-175 -338 -11 -10 -18 -24 -14 -30 3 -6 3 -8 -1 -4 -5 4 -33 -13 -63 -38 -46
-37 -167 -108 -175 -102 -2 1 -14 -5 -28 -12 -14 -8 -28 -13 -32 -12 -4 1 -20
-3 -35 -9 -52 -20 -211 -28 -283 -15 -76 15 -96 19 -130 32 -24 9 -56 17 -58
16 -1 -2 -8 2 -15 8 -31 27 -143 94 -152 91 -5 -1 -8 0 -5 3 3 3 -24 36 -60
74 -36 38 -78 96 -95 128 -16 33 -34 62 -40 66 -5 4 -7 8 -3 8 4 0 1 15 -7 34
-14 33 -43 157 -44 186 0 8 -1 35 -2 60 -3 74 21 194 52 268 10 23 16 42 14
42 -12 0 106 163 150 205 55 54 145 118 183 129 12 4 22 12 22 17 0 5 3 8 8 7
6 -3 70 15 112 30 8 3 31 7 50 10 19 2 37 6 39 8 13 12 224 -6 291 -25z"/>
<path d="M637 1312 c-2 -4 -3 -223 -3 -487 l1 -480 40 0 40 0 1 443 c0 243 4
445 7 448 8 8 206 8 214 0 3 -3 6 -83 7 -178 l1 -173 -77 2 c-67 1 -78 -1 -78
-15 0 -23 93 -296 103 -300 4 -2 5 -7 3 -10 -2 -4 12 -55 32 -113 l37 -105 38
-1 c20 0 37 3 37 7 0 4 -36 110 -80 236 -44 126 -80 232 -80 237 0 4 11 5 24
1 38 -9 106 14 115 39 12 32 11 377 -1 409 -5 14 -22 31 -36 37 -29 11 -340
13 -345 3z"/>
<path d="M782 1069 c21 -10 41 -20 45 -20 5 -1 17 -8 28 -15 26 -19 46 -18 38
1 -8 22 -50 42 -103 48 l-45 6 37 -20z"/>
</g>
</svg>
